<svg width="310" height="246" viewBox="0 0 310 246" fill="none" xmlns="http://www.w3.org/2000/svg">
<g filter="url(#filter0_d_292_24)">
<path d="M187.376 0.00113135C220.14 -0.142667 251.667 13.4269 274.065 37.5884C294.715 59.8227 306.257 88.8772 306.607 119.127L306.608 119.252V119.377C306.608 185.285 253.326 239.329 187.376 239.329H108.032C79.3125 239.329 52.0152 227.5 32.383 206.596L32.3612 206.573C13.8612 186.815 3.38123 160.877 3.20055 133.777L3.2002 133.705V133.633C3.20022 103.147 17.9301 70.8652 44.2082 50.3104C44.2082 50.3104 59.9053 39.4257 71.0584 35.2808C82.2115 31.1359 94.5772 28.8008 108.032 28.8008C108.475 28.8008 108.917 28.8059 109.358 28.8141C130.395 10.6255 159.039 0.0304834 187.26 0.00148291C187.299 0.00127504 187.337 0.00130103 187.376 0.00113135Z" fill="white"/>
<path d="M258.224 52.273C239.936 32.545 214.16 21.457 187.376 21.601C161.168 21.601 134.528 32.833 117.392 50.977C114.224 50.689 111.056 50.401 108.032 50.401C56.6238 50.401 24.7998 93.601 24.7998 133.633C24.9438 155.233 33.2958 175.969 48.1278 191.809C63.6798 208.369 85.2798 217.729 108.032 217.729H187.376C241.232 217.729 285.008 173.521 285.008 119.377C284.72 94.465 275.216 70.561 258.224 52.273ZM106.448 203.617C68.2878 203.617 37.4718 172.657 37.4718 134.497C37.4718 96.625 68.1438 65.809 106.16 65.521C123.008 65.521 139.424 71.713 151.952 82.945L152.24 83.233L180.896 112.609C185.648 117.505 185.504 125.281 180.608 130.033C175.712 134.785 167.936 134.641 163.184 129.745L134.96 100.657C116.528 84.817 88.7358 86.833 72.8958 105.265C65.9838 113.185 62.2398 123.409 62.2398 133.921C62.2398 158.113 82.8318 178.561 107.168 178.561H112.784V178.705C120.848 189.937 143.456 203.617 143.456 203.617H106.448ZM247.856 178.849C232.448 194.977 211.136 204.049 188.816 204.193C167.648 204.193 146.048 194.689 129.488 178.273L91.7598 140.257C87.0078 135.361 87.1518 127.585 91.9038 122.833C94.2078 120.529 97.2318 119.377 100.544 119.377C103.856 119.377 107.024 120.673 109.328 123.121L146.912 160.705C158.864 172.657 174.128 179.425 188.816 179.425C204.512 179.425 219.488 172.945 230.288 161.425C241.376 150.049 247.568 134.785 247.568 118.945C247.568 86.401 221.072 60.049 188.528 59.905C176.144 59.905 165.92 62.353 155.84 69.409C155.696 69.265 152.96 67.537 149.936 65.665C148.064 64.513 146.048 63.361 144.32 62.497C142.592 61.489 137.408 59.041 134.384 57.745C133.664 57.457 132.656 57.025 132.224 56.881H132.368C147.92 42.337 167.216 35.281 188.528 35.281C234.752 35.281 272.048 72.721 272.192 118.945C272.192 141.265 263.552 162.865 247.856 178.849Z" fill="black"/>
</g>
<defs>
<filter id="filter0_d_292_24" x="0.000195265" y="0" width="309.808" height="245.729" filterUnits="userSpaceOnUse" color-interpolation-filters="sRGB">
<feFlood flood-opacity="0" result="BackgroundImageFix"/>
<feColorMatrix in="SourceAlpha" type="matrix" values="0 0 0 0 0 0 0 0 0 0 0 0 0 0 0 0 0 0 127 0" result="hardAlpha"/>
<feOffset dy="3.2"/>
<feGaussianBlur stdDeviation="1.6"/>
<feComposite in2="hardAlpha" operator="out"/>
<feColorMatrix type="matrix" values="0 0 0 0 0 0 0 0 0 0 0 0 0 0 0 0 0 0 0.25 0"/>
<feBlend mode="normal" in2="BackgroundImageFix" result="effect1_dropShadow_292_24"/>
<feBlend mode="normal" in="SourceGraphic" in2="effect1_dropShadow_292_24" result="shape"/>
</filter>
</defs>
</svg>
