<svg width="284" height="237" viewBox="0 0 284 237" fill="none" xmlns="http://www.w3.org/2000/svg">
<g filter="url(#filter0_d_292_33)">
<path d="M115.064 125.514C115.982 109.15 123.995 94.7328 136.084 84.5127C147.94 74.4743 163.898 68.3389 181.309 68.3389C198.703 68.3389 214.661 74.4743 226.525 84.5127C238.606 94.7328 246.619 109.15 247.545 125.497C248.462 142.311 241.704 157.931 229.848 169.51C217.759 181.288 200.564 188.678 181.309 188.678C162.054 188.678 144.825 181.288 132.744 169.51C120.88 157.931 114.138 142.311 115.064 125.514Z" fill="white"/>
<path d="M147.321 126.983C147.791 118.586 151.903 111.188 158.106 105.944C164.189 100.794 172.377 97.6455 181.311 97.6455C190.236 97.6455 198.424 100.794 204.512 105.944C210.71 111.188 214.822 118.586 215.297 126.974C215.768 135.601 212.3 143.616 206.217 149.557C200.014 155.6 191.191 159.392 181.311 159.392C171.432 159.392 162.591 155.6 156.392 149.557C150.305 143.616 146.846 135.601 147.321 126.983Z" fill="black"/>
<path d="M148.604 2.39464e-05C154.138 -0.00692904 160.249 1.49965 165.305 5.30549C165.532 5.47107 165.711 5.61279 165.828 5.70745L255.745 76.4012C259.824 80.7686 263.474 85.5141 266.64 90.6211C273.058 100.93 277.253 112.295 278.974 124.406L278.974 124.41C279.855 130.622 280.058 136.856 279.578 143.083L279.577 143.086L279.577 143.089C279.083 149.445 277.854 155.745 275.928 161.912L275.926 161.921L275.923 161.929C272.079 174.177 265.6 185.464 256.685 195.35L256.681 195.354C247.542 205.479 236.32 213.59 223.463 219.344L223.456 219.347L223.451 219.35C209.927 225.384 195.303 228.478 180.216 228.499C180.215 228.499 180.214 228.499 180.213 228.499L180.213 228.499L180.212 228.499C165.114 228.523 150.488 225.491 136.951 219.496L136.948 219.495C124.081 213.792 112.843 205.712 103.683 195.588C94.7549 185.735 88.2573 174.455 84.4185 162.191C84.1132 161.221 83.8229 160.204 83.5506 159.163L52.1057 184.899L52.0463 184.948C40.3225 194.418 20.4517 197.147 9.37909 182.954L9.37948 182.954C-1.61019 168.883 5.82494 150.688 17.4592 141.779C17.6074 141.665 17.7323 141.572 17.8115 141.514C17.8485 141.486 17.8831 141.461 17.9119 141.44L80.0928 93.711C70.8726 92.22 52.9376 93.2254 46.167 86.3094C41.0671 81.1 38.8405 73.7362 40.5853 66.2008C42.2033 59.1816 46.8067 53.7891 51.8529 50.316C56.967 46.7963 63.3678 44.6334 70.042 44.6262H70.1752L136.429 44.5555C130.86 37.8428 121.156 30.6881 122.01 21.2574C122.628 14.4321 126.578 8.80097 131.792 5.15276L131.792 5.15198C136.906 1.57508 142.968 0.00713543 148.604 2.39464e-05ZM180.191 93.5938C169.66 93.608 159.777 97.0943 152.126 103.329C148.22 106.523 145.152 110.216 142.963 114.194L142.962 114.197C140.727 118.257 139.35 122.696 138.959 127.319L138.958 127.336L138.956 127.353C138.541 132.103 139.164 136.787 140.772 141.212C142.366 145.586 144.951 149.793 148.56 153.55L148.912 153.912L148.918 153.917L148.924 153.923C156.707 161.839 167.793 166.493 180.174 166.472C192.531 166.447 203.637 161.751 211.44 153.802C215.236 149.934 217.931 145.595 219.586 141.055C221.198 136.618 221.823 131.934 221.413 127.183C221.001 122.513 219.628 118.099 217.4 114.073L217.395 114.064L217.389 114.055C215.202 110.087 212.142 106.411 208.245 103.234C200.596 97.0311 190.733 93.5796 180.191 93.5938Z" fill="white"/>
<path d="M93.1936 143.949C93.2513 147.235 94.2992 153.62 95.871 158.607C99.1746 169.161 104.778 178.925 112.575 187.531C120.577 196.376 130.43 203.48 141.81 208.524C153.773 213.822 166.734 216.521 180.197 216.499C193.638 216.481 206.599 213.728 218.561 208.391C229.942 203.298 239.786 196.163 247.774 187.313C255.567 178.672 261.161 168.89 264.474 158.336C266.139 153.003 267.191 147.59 267.613 142.16C268.026 136.809 267.853 131.45 267.094 126.095C265.611 115.66 262.001 105.869 256.441 96.944C251.357 88.7428 244.803 81.5629 237.011 75.5196L237.028 75.5062L158.386 15.1226C158.315 15.0693 158.257 15.0116 158.182 14.9628C153.022 11.002 144.346 11.0154 138.671 14.985C132.934 18.999 132.277 25.6372 137.383 29.8244L137.361 29.8466L170.162 56.5195L70.1883 56.6261H70.0551C61.7917 56.635 53.848 62.0566 52.2762 68.9079C50.6599 75.8881 56.2724 81.6782 64.8644 81.7093L64.8511 81.7405L115.524 81.6428L25.1015 151.049C24.986 151.133 24.8617 151.222 24.7551 151.307C16.2253 157.838 13.4679 168.699 18.8407 175.573C24.2934 182.562 35.887 182.575 44.5056 175.613L93.8552 135.224C93.8552 135.224 93.1358 140.677 93.1936 143.949ZM220.004 162.208C209.836 172.567 195.6 178.441 180.197 178.472C164.771 178.499 150.536 172.678 140.367 162.336C135.399 157.297 131.749 151.498 129.497 145.321C127.291 139.251 126.434 132.808 127.002 126.308C127.539 119.954 129.431 113.893 132.45 108.409C135.416 103.018 139.501 98.1474 144.546 94.0268C154.43 85.9721 167.014 81.6116 180.175 81.5939C193.349 81.5761 205.924 85.8966 215.817 93.9246C220.852 98.0275 224.933 102.881 227.899 108.262C230.932 113.742 232.81 119.78 233.37 126.152C233.929 132.644 233.072 139.078 230.865 145.152C228.61 151.347 224.973 157.146 220.004 162.208Z" fill="black"/>
</g>
<defs>
<filter id="filter0_d_292_33" x="0" y="0" width="283.831" height="236.499" filterUnits="userSpaceOnUse" color-interpolation-filters="sRGB">
<feFlood flood-opacity="0" result="BackgroundImageFix"/>
<feColorMatrix in="SourceAlpha" type="matrix" values="0 0 0 0 0 0 0 0 0 0 0 0 0 0 0 0 0 0 127 0" result="hardAlpha"/>
<feOffset dy="4"/>
<feGaussianBlur stdDeviation="2"/>
<feComposite in2="hardAlpha" operator="out"/>
<feColorMatrix type="matrix" values="0 0 0 0 0 0 0 0 0 0 0 0 0 0 0 0 0 0 0.25 0"/>
<feBlend mode="normal" in2="BackgroundImageFix" result="effect1_dropShadow_292_33"/>
<feBlend mode="normal" in="SourceGraphic" in2="effect1_dropShadow_292_33" result="shape"/>
</filter>
</defs>
</svg>
