<svg width="249" height="335" viewBox="0 0 249 335" fill="none" xmlns="http://www.w3.org/2000/svg">
<g filter="url(#filter0_d_292_21)">
<path d="M167.125 7.875C185.624 7.875 203.365 15.2236 216.446 28.3043C229.526 41.385 236.875 59.1261 236.875 77.625C236.875 93.1857 231.674 108.209 222.237 120.375C231.674 132.541 236.875 147.564 236.875 163.125C236.875 181.624 229.526 199.365 216.446 212.446C203.365 225.526 185.624 232.875 167.125 232.875C161.78 232.875 156.499 232.26 151.375 231.072V248.625C151.375 267.124 144.026 284.865 130.946 297.946C117.865 311.026 100.124 318.375 81.625 318.375C63.1262 318.375 45.385 311.026 32.3043 297.946C19.2236 284.865 11.875 267.124 11.875 248.625C11.875 233.064 17.0753 218.041 26.5123 205.875C17.2506 193.935 12.0695 179.243 11.8803 163.992L11.875 163.125C11.875 147.564 17.0753 132.541 26.5123 120.375C17.2506 108.435 12.0695 93.7428 11.8803 78.4916L11.875 77.625C11.875 59.1261 19.2236 41.385 32.3043 28.3043C45.385 15.2236 63.1261 7.875 81.625 7.875H167.125Z" fill="white" stroke="white" stroke-width="15.75"/>
<path d="M167.125 120.375C155.787 120.375 144.913 124.879 136.896 132.896C128.879 140.913 124.375 151.787 124.375 163.125C124.375 174.463 128.879 185.337 136.896 193.354C144.913 201.371 155.787 205.875 167.125 205.875C178.463 205.875 189.337 201.371 197.354 193.354C205.371 185.337 209.875 174.463 209.875 163.125C209.875 151.787 205.371 140.913 197.354 132.896C189.337 124.879 178.463 120.375 167.125 120.375ZM167.125 120.375H124.375M167.125 120.375C178.463 120.375 189.337 115.871 197.354 107.854C205.371 99.8366 209.875 88.963 209.875 77.625C209.875 66.287 205.371 55.4134 197.354 47.3962C189.337 39.379 178.463 34.875 167.125 34.875H124.375M81.625 205.875C70.287 205.875 59.4134 210.379 51.3962 218.396C43.379 226.413 38.875 237.287 38.875 248.625C38.875 259.963 43.379 270.837 51.3962 278.854C59.4134 286.871 70.287 291.375 81.625 291.375C92.963 291.375 103.837 286.871 111.854 278.854C119.871 270.837 124.375 259.963 124.375 248.625V205.875M81.625 205.875H124.375M81.625 205.875C70.287 205.875 59.4134 201.371 51.3962 193.354C43.379 185.337 38.875 174.463 38.875 163.125C38.875 151.787 43.379 140.913 51.3962 132.896C59.4134 124.879 70.287 120.375 81.625 120.375M124.375 205.875V120.375M124.375 34.875V120.375M124.375 34.875H81.625C70.287 34.875 59.4134 39.379 51.3962 47.3962C43.379 55.4134 38.875 66.287 38.875 77.625C38.875 88.963 43.379 99.8366 51.3962 107.854C59.4134 115.871 70.287 120.375 81.625 120.375M124.375 120.375H81.625" stroke="black" stroke-width="20"/>
</g>
<defs>
<filter id="filter0_d_292_21" x="0" y="0" width="248.75" height="334.25" filterUnits="userSpaceOnUse" color-interpolation-filters="sRGB">
<feFlood flood-opacity="0" result="BackgroundImageFix"/>
<feColorMatrix in="SourceAlpha" type="matrix" values="0 0 0 0 0 0 0 0 0 0 0 0 0 0 0 0 0 0 127 0" result="hardAlpha"/>
<feOffset dy="4"/>
<feGaussianBlur stdDeviation="2"/>
<feComposite in2="hardAlpha" operator="out"/>
<feColorMatrix type="matrix" values="0 0 0 0 0 0 0 0 0 0 0 0 0 0 0 0 0 0 0.25 0"/>
<feBlend mode="normal" in2="BackgroundImageFix" result="effect1_dropShadow_292_21"/>
<feBlend mode="normal" in="SourceGraphic" in2="effect1_dropShadow_292_21" result="shape"/>
</filter>
</defs>
</svg>
