<svg width="252" height="252" viewBox="0 0 252 252" fill="none" xmlns="http://www.w3.org/2000/svg">
<path d="M225.349 0.00219727C240.1 0.189017 252 12.2048 252 27V225C252 239.912 239.912 252 225 252H27C12.0883 252 2.89917e-07 239.912 0 225L0 27L0.00219727 26.6511C0.189017 11.9002 12.2048 2.87652e-07 27 0L225 0L225.349 0.00219727Z" fill="white"/>
<g clip-path="url(#clip0_292_27)">
<path d="M13.5 197.563V238.504H49.338C31.9275 228.591 19.6245 213.525 13.5 197.563Z" fill="black"/>
<path d="M163.895 154.867C163.845 117.04 133.484 80.6173 87.8535 79.0423C55.5255 77.9263 30.3705 89.7838 13.5 107.302V146.794C24.9705 113.661 56.5785 98.4598 83.061 98.7253C116.145 99.0583 141.665 124.011 141.813 152.217C141.957 179.176 130.662 199.021 100.179 203.913C83.5605 206.581 57.5505 196.834 58.707 171.724C59.3055 158.778 69.3855 151.465 80.9415 151.996C69.6375 167.143 84.6045 178.249 95.1885 175.986C108.288 173.187 113.625 161.554 113.625 152.527C113.625 143.01 104.657 127.633 82.395 128.16C54.846 128.812 37.512 148.63 36.927 173.128C36.1935 203.98 65.0475 224.257 94.6665 224.626C138.15 225.166 163.949 196.641 163.89 154.867H163.895Z" fill="black"/>
<path d="M13.5 13.5V78.2325C32.85 63.3825 58.032 53.775 87.8535 53.793C151.695 53.829 192.226 98.4375 192.208 154.714C192.195 193.81 173.952 223.209 145.386 238.504H238.5V13.5L13.5 13.5Z" fill="black"/>
</g>
<defs>
<clipPath id="clip0_292_27">
<rect x="13.5" y="13.5" width="225" height="225" rx="13.5" fill="white"/>
</clipPath>
</defs>
</svg>
